Tanya_Crispy root-x0y0t0_010220202.ufo
<glyph name="period" format="2">
	<advance width="61"/>
	<unicode hex="002E"/>
	<outline>
		<contour>
			<point x="32" y="0" type="line"/>
			<point x="32" y="3" type="line"/>
			<point x="32" y="6" type="line"/>
			<point x="26" y="6" type="line"/>
			<point x="26" y="3" type="line"/>
			<point x="26" y="0" type="line"/>
		</contour>
	</outline>
</glyph>
<glyph name="seven" format="2">
	<advance width="149"/>
	<unicode hex="0037"/>
	<outline>
		<contour>
			<point x="77" y="0" type="line"/>
			<point x="79" y="0" type="line"/>
			<point x="122" y="1491" type="line"/>
			<point x="122" y="1600" type="line"/>
			<point x="27" y="1600" type="line"/>
			<point x="27" y="1360" type="line"/>
			<point x="29" y="1360" type="line"/>
			<point x="29" y="1598" type="line"/>
			<point x="120" y="1598" type="line"/>
			<point x="120" y="1496" type="line"/>
		</contour>
	</outline>
</glyph>
<glyph name="B" format="2">
	<advance width="159"/>
	<unicode hex="0042"/>
	<outline>
		<contour>
			<point x="34" y="0" type="line"/>
			<point x="90" y="0" type="line"/>
			<point x="130" y="344" type="line"/>
			<point x="130" y="801" type="line"/>
			<point x="108" y="801" type="line"/>
			<point x="108" y="1600" type="line"/>
			<point x="34" y="1600" type="line"/>
		</contour>
		<contour>
			<point x="36" y="801" type="line"/>
			<point x="36" y="1598" type="line"/>
			<point x="106" y="1598" type="line"/>
			<point x="106" y="801" type="line"/>
		</contour>
		<contour>
			<point x="36" y="2" type="line"/>
			<point x="36" y="799" type="line"/>
			<point x="128" y="799" type="line"/>
			<point x="128" y="344" type="line"/>
			<point x="88" y="2" type="line"/>
		</contour>
	</outline>
</glyph>
<glyph name="F" format="2">
	<advance width="148"/>
	<unicode hex="0046"/>
	<outline>
		<contour>
			<point x="34" y="0" type="line"/>
			<point x="36" y="0" type="line"/>
			<point x="36" y="799" type="line"/>
			<point x="120" y="799" type="line"/>
			<point x="120" y="801" type="line"/>
			<point x="36" y="801" type="line"/>
			<point x="36" y="1598" type="line"/>
			<point x="119" y="1598" type="line"/>
			<point x="119" y="1160" type="line"/>
			<point x="121" y="1160" type="line"/>
			<point x="121" y="1600" type="line"/>
			<point x="34" y="1600" type="line"/>
		</contour>
	</outline>
</glyph>
<glyph name="O" format="2">
	<advance width="156"/>
	<unicode hex="004F"/>
	<outline>
		<contour>
			<point x="127" y="163" type="line"/>
			<point x="127" y="1600" type="line"/>
			<point x="63" y="1600" type="line"/>
			<point x="29" y="1438" type="line"/>
			<point x="29" y="0" type="line"/>
			<point x="93" y="0" type="line"/>
		</contour>
		<contour>
			<point x="125" y="163" type="line"/>
			<point x="91" y="2" type="line"/>
			<point x="31" y="2" type="line"/>
			<point x="31" y="1437" type="line"/>
			<point x="65" y="1598" type="line"/>
			<point x="125" y="1598" type="line"/>
		</contour>
	</outline>
</glyph>
<glyph name="U" format="2">
	<advance width="159"/>
	<unicode hex="0055"/>
	<outline>
		<contour>
			<point x="29" y="0" type="line" smooth="yes"/>
			<point x="125" y="0" type="line" smooth="yes"/>
			<point x="125" y="1600" type="line" smooth="yes"/>
			<point x="123" y="1600" type="line" smooth="yes"/>
			<point x="123" y="2" type="line"/>
			<point x="31" y="2" type="line" smooth="yes"/>
			<point x="31" y="1600" type="line"/>
			<point x="29" y="1600" type="line" smooth="yes"/>
		</contour>
	</outline>
</glyph>
<glyph name="Y" format="2">
	<advance width="160"/>
	<unicode hex="0059"/>
	<outline>
		<contour>
			<point x="27" y="0" type="line"/>
			<point x="126" y="0" type="line"/>
			<point x="126" y="1600" type="line"/>
			<point x="124" y="1600" type="line"/>
			<point x="124" y="801" type="line"/>
			<point x="33" y="801" type="line"/>
			<point x="33" y="1600" type="line"/>
			<point x="31" y="1600" type="line"/>
			<point x="31" y="799" type="line"/>
			<point x="124" y="799" type="line"/>
			<point x="124" y="2" type="line"/>
			<point x="28" y="2" type="line"/>
			<point x="29" y="342" type="line"/>
			<point x="27" y="342" type="line"/>
		</contour>
	</outline>
</glyph>
<glyph name="bar" format="2">
	<advance width="150"/>
	<unicode hex="007C"/>
	<outline>
		<contour>
			<point x="76" y="0" type="line"/>
			<point x="78" y="0" type="line"/>
			<point x="78" y="1600" type="line"/>
			<point x="76" y="1600" type="line"/>
		</contour>
	</outline>
</glyph>
<glyph name="cent" format="2">
	<advance width="150"/>
	<unicode hex="00A2"/>
	<outline>
		<contour>
			<point x="79" y="0" type="line"/>
			<point x="81" y="0" type="line"/>
			<point x="81" y="1600" type="line"/>
			<point x="79" y="1600" type="line"/>
		</contour>
		<contour>
			<point x="124" y="883" type="line"/>
			<point x="124" y="1390" type="line"/>
			<point x="63" y="1390" type="line"/>
			<point x="29" y="1227" type="line"/>
			<point x="29" y="373" type="line"/>
			<point x="63" y="210" type="line"/>
			<point x="124" y="210" type="line"/>
			<point x="124" y="717" type="line"/>
			<point x="122" y="717" type="line"/>
			<point x="122" y="212" type="line"/>
			<point x="65" y="212" type="line"/>
			<point x="31" y="373" type="line"/>
			<point x="31" y="1227" type="line"/>
			<point x="65" y="1388" type="line"/>
			<point x="122" y="1388" type="line"/>
			<point x="122" y="883" type="line"/>
		</contour>
	</outline>
</glyph>
<glyph name="yen" format="2">
	<advance width="150"/>
	<unicode hex="00A5"/>
	<outline>
		<contour>
			<point x="124" y="600" type="line"/>
			<point x="124" y="602" type="line"/>
			<point x="29" y="602" type="line"/>
			<point x="29" y="600" type="line"/>
		</contour>
		<contour>
			<point x="29" y="799" type="line"/>
			<point x="124" y="799" type="line"/>
			<point x="124" y="1600" type="line"/>
			<point x="122" y="1600" type="line"/>
			<point x="122" y="801" type="line"/>
			<point x="31" y="801" type="line"/>
			<point x="31" y="1600" type="line"/>
			<point x="29" y="1600" type="line"/>
		</contour>
		<contour>
			<point x="76" y="0" type="line"/>
			<point x="78" y="0" type="line"/>
			<point x="78" y="799" type="line"/>
			<point x="76" y="799" type="line"/>
		</contour>
		<contour>
			<point x="124" y="700" type="line"/>
			<point x="124" y="702" type="line"/>
			<point x="29" y="702" type="line"/>
			<point x="29" y="700" type="line"/>
		</contour>
	</outline>
</glyph>
<glyph name="copyright" format="2">
	<advance width="400"/>
	<unicode hex="00A9"/>
	<outline>
		<contour>
			<point x="142" y="163" type="line"/>
			<point x="142" y="1600" type="line"/>
			<point x="48" y="1600" type="line"/>
			<point x="14" y="1438" type="line"/>
			<point x="14" y="0" type="line"/>
			<point x="108" y="0" type="line"/>
		</contour>
		<contour>
			<point x="140" y="163" type="line"/>
			<point x="106" y="2" type="line"/>
			<point x="16" y="2" type="line"/>
			<point x="16" y="1437" type="line"/>
			<point x="50" y="1598" type="line"/>
			<point x="140" y="1598" type="line"/>
		</contour>
		<contour>
			<point x="33" y="20" type="line"/>
			<point x="94" y="20" type="line"/>
			<point x="124" y="162" type="line"/>
			<point x="124" y="326" type="line"/>
			<point x="122" y="326" type="line"/>
			<point x="122" y="162" type="line"/>
			<point x="92" y="22" type="line"/>
			<point x="35" y="22" type="line"/>
			<point x="34" y="1440" type="line"/>
			<point x="63" y="1580" type="line"/>
			<point x="122" y="1580" type="line"/>
			<point x="122" y="1093" type="line"/>
			<point x="124" y="1093" type="line"/>
			<point x="124" y="1582" type="line"/>
			<point x="61" y="1582" type="line"/>
			<point x="32" y="1440" type="line"/>
		</contour>
		<contour>
			<point x="342" y="163" type="line"/>
			<point x="342" y="1600" type="line"/>
			<point x="248" y="1600" type="line"/>
			<point x="214" y="1438" type="line"/>
			<point x="214" y="0" type="line"/>
			<point x="308" y="0" type="line"/>
		</contour>
		<contour>
			<point x="340" y="163" type="line"/>
			<point x="306" y="2" type="line"/>
			<point x="216" y="2" type="line"/>
			<point x="216" y="1437" type="line"/>
			<point x="250" y="1598" type="line"/>
			<point x="340" y="1598" type="line"/>
		</contour>
		<contour>
			<point x="233" y="220" type="line"/>
			<point x="324" y="220" type="line"/>
			<point x="324" y="526" type="line"/>
			<point x="322" y="526" type="line"/>
			<point x="322" y="222" type="line"/>
			<point x="235" y="222" type="line"/>
			<point x="234" y="1240" type="line"/>
			<point x="263" y="1380" type="line"/>
			<point x="322" y="1380" type="line"/>
			<point x="322" y="893" type="line"/>
			<point x="324" y="893" type="line"/>
			<point x="324" y="1382" type="line"/>
			<point x="261" y="1382" type="line"/>
			<point x="232" y="1240" type="line"/>
		</contour>
	</outline>
</glyph>
<glyph name="registered" format="2">
	<advance width="150"/>
	<unicode hex="00AE"/>
	<outline>
		<contour>
			<point x="142" y="1000" type="line"/>
			<point x="142" y="1600" type="line"/>
			<point x="48" y="1600" type="line"/>
			<point x="14" y="1600" type="line"/>
			<point x="14" y="1000" type="line"/>
			<point x="108" y="1000" type="line"/>
		</contour>
		<contour>
			<point x="140" y="1002" type="line"/>
			<point x="106" y="1002" type="line"/>
			<point x="16" y="1002" type="line"/>
			<point x="16" y="1598" type="line"/>
			<point x="50" y="1598" type="line"/>
			<point x="140" y="1598" type="line"/>
		</contour>
		<contour>
			<point x="131" y="1018" type="line"/>
			<point x="133" y="1018" type="line"/>
			<point x="84" y="1272" type="line"/>
			<point x="82" y="1272" type="line"/>
		</contour>
		<contour>
			<point x="32" y="1018" type="line"/>
			<point x="34" y="1018" type="line"/>
			<point x="34" y="1271" type="line"/>
			<point x="124" y="1271" type="line"/>
			<point x="124" y="1581" type="line"/>
			<point x="32" y="1581" type="line"/>
		</contour>
		<contour>
			<point x="34" y="1273" type="line"/>
			<point x="34" y="1579" type="line"/>
			<point x="122" y="1579" type="line"/>
			<point x="122" y="1273" type="line"/>
		</contour>
	</outline>
</glyph>
<glyph name="degree" format="2">
	<advance width="150"/>
	<unicode hex="00B0"/>
	<outline>
		<contour>
			<point x="142" y="1163" type="line"/>
			<point x="142" y="1600" type="line"/>
			<point x="48" y="1600" type="line"/>
			<point x="14" y="1438" type="line"/>
			<point x="14" y="1000" type="line"/>
			<point x="108" y="1000" type="line"/>
		</contour>
		<contour>
			<point x="139" y="1163" type="line"/>
			<point x="105" y="1003" type="line"/>
			<point x="17" y="1003" type="line"/>
			<point x="17" y="1437" type="line"/>
			<point x="51" y="1596" type="line"/>
			<point x="139" y="1596" type="line"/>
		</contour>
	</outline>
</glyph>
<glyph name="quoteright" format="2">
  <advance width="86"/>
  <unicode hex="2019"/>
  <outline>
    <contour>
      <point x="57" y="1600" type="line"/>
      <point x="54" y="1600" type="line"/>
      <point x="20" y="1438" type="line"/>
      <point x="22" y="1438" type="line"/>
    </contour>
  </outline>
</glyph>
<glyph name="increment" format="2">
	<advance width="150"/>
	<unicode hex="2206"/>
	<outline>
		<contour>
			<point x="139" y="0" type="line"/>
			<point x="86" y="1600" type="line"/>
			<point x="64" y="1600" type="line"/>
			<point x="11" y="0" type="line"/>
		</contour>
		<contour>
			<point x="137" y="2" type="line"/>
			<point x="13" y="2" type="line"/>
			<point x="66" y="1598" type="line"/>
			<point x="84" y="1598" type="line"/>
		</contour>
	</outline>
</glyph>
<glyph name="M.narrow" format="2">
	<advance width="253"/>
	<outline>
		<contour>
			<point x="222" y="0" type="line" smooth="yes"/>
			<point x="224" y="0" type="line" smooth="yes"/>
			<point x="224" y="1600" type="line" smooth="yes"/>
			<point x="68" y="1600" type="line" smooth="yes"/>
			<point x="34" y="1440" type="line" smooth="yes"/>
			<point x="34" y="0" type="line" smooth="yes"/>
			<point x="36" y="0" type="line"/>
			<point x="36" y="1439" type="line" smooth="yes"/>
			<point x="70" y="1598" type="line" smooth="yes"/>
			<point x="131" y="1598" type="line"/>
			<point x="131" y="340" type="line" smooth="yes"/>
			<point x="133" y="340" type="line"/>
			<point x="133" y="1598" type="line"/>
			<point x="222" y="1598" type="line"/>
		</contour>
	</outline>
</glyph>
<glyph name="N.wide" format="2">
	<advance width="183"/>
	<outline>
		<contour>
			<point x="34" y="0" type="line"/>
			<point x="36" y="0" type="line"/>
			<point x="36" y="1598" type="line"/>
			<point x="49" y="1598" type="line"/>
			<point x="129" y="0" type="line"/>
			<point x="149" y="0" type="line"/>
			<point x="149" y="1600" type="line"/>
			<point x="147" y="1600" type="line"/>
			<point x="147" y="2" type="line"/>
			<point x="131" y="2" type="line"/>
			<point x="51" y="1600" type="line"/>
			<point x="34" y="1600" type="line"/>
		</contour>
	</outline>
</glyph>
<glyph name="/arrowNE" format="2">
	<advance width="150"/>
	<outline>
		<contour>
			<point x="79" y="848" type="line"/>
			<point x="79" y="850" type="line"/>
			<point x="29" y="850" type="line"/>
			<point x="29" y="848" type="line"/>
		</contour>
		<contour>
			<point x="112" y="814" type="line"/>
			<point x="114" y="815" type="line"/>
			<point x="79" y="850" type="line"/>
			<point x="77" y="849" type="line"/>
		</contour>
		<contour>
			<point x="80" y="849" type="line"/>
			<point x="78" y="850" type="line"/>
			<point x="39" y="758" type="line"/>
			<point x="41" y="757" type="line"/>
		</contour>
	</outline>
</glyph>
<glyph name="/arrowSW" format="2">
	<advance width="150"/>
	<outline>
		<contour>
			<point x="48" y="752" type="line"/>
			<point x="48" y="750" type="line"/>
			<point x="98" y="750" type="line"/>
			<point x="98" y="752" type="line"/>
		</contour>
		<contour>
			<point x="15" y="786" type="line"/>
			<point x="13" y="785" type="line"/>
			<point x="48" y="750" type="line"/>
			<point x="50" y="751" type="line"/>
		</contour>
		<contour>
			<point x="47" y="751" type="line"/>
			<point x="49" y="750" type="line"/>
			<point x="88" y="842" type="line"/>
			<point x="86" y="843" type="line"/>
		</contour>
	</outline>
</glyph>
<glyph name="/arrowleftright" format="2">
	<advance width="150"/>
	<outline>
		<contour>
			<point x="33" y="847" type="line"/>
			<point x="13" y="800" type="line"/>
			<point x="15" y="800" type="line"/>
			<point x="35" y="847" type="line"/>
		</contour>
		<contour>
			<point x="15" y="799" type="line"/>
			<point x="113" y="799" type="line"/>
			<point x="113" y="801" type="line"/>
			<point x="15" y="801" type="line"/>
		</contour>
		<contour>
			<point x="13" y="800" type="line"/>
			<point x="33" y="755" type="line"/>
			<point x="35" y="755" type="line"/>
			<point x="15" y="800" type="line"/>
		</contour>
		<contour>
			<point x="104" y="847" type="line"/>
			<point x="102" y="847" type="line"/>
			<point x="122" y="801" type="line"/>
			<point x="24" y="801" type="line"/>
			<point x="24" y="799" type="line"/>
			<point x="122" y="799" type="line"/>
			<point x="102" y="755" type="line"/>
			<point x="104" y="755" type="line"/>
			<point x="124" y="800" type="line"/>
		</contour>
	</outline>
</glyph>
